<mxfile host="drawio-plugin" modified="2022-12-17T00:37:07.757Z" agent="5.0 (Windows NT 6.2; Win64; x64) AppleWebKit/537.36 (KHTML, like Gecko) Chrome/98.0.4758.102 Safari/537.36" etag="PS_FmXEHBjBPduoXhZva" version="20.5.3" type="embed"><diagram id="kgpKYQtTHZ0yAKxKKP6v" name="Page-1"><mxGraphModel dx="899" dy="613" grid="1" gridSize="10" guides="1" tooltips="1" connect="1" arrows="1" fold="1" page="1" pageScale="1" pageWidth="850" pageHeight="1100" math="0" shadow="0"><root><mxCell id="0"/><mxCell id="1" parent="0"/><mxCell id="dUl0ps8TCkOEMYuiNfiw-31" value="&lt;div&gt;break&lt;/div&gt;&lt;div&gt;&lt;font style=&quot;font-size: 8px;&quot;&gt;(if move is valid)&lt;/font&gt;&lt;/div&gt;" style="rounded=0;whiteSpace=wrap;html=1;shadow=0;glass=0;labelBackgroundColor=none;sketch=0;fontColor=default;fillColor=none;align=left;verticalAlign=top;" parent="1" vertex="1"><mxGeometry x="310" y="580" width="350" height="60" as="geometry"/></mxCell><mxCell id="dUl0ps8TCkOEMYuiNfiw-32" value="loop" style="rounded=0;whiteSpace=wrap;html=1;fillColor=none;align=left;verticalAlign=top;labelBackgroundColor=none;fontColor=default;sketch=0;shadow=0;glass=0;" parent="1" vertex="1"><mxGeometry x="260" y="430" width="510" height="240" as="geometry"/></mxCell><mxCell id="dUl0ps8TCkOEMYuiNfiw-19" value="loop" style="rounded=0;whiteSpace=wrap;html=1;fillColor=none;align=left;verticalAlign=top;labelBackgroundColor=none;fontColor=default;sketch=0;shadow=0;glass=0;" parent="1" vertex="1"><mxGeometry x="40" y="200" width="460" height="180" as="geometry"/></mxCell><mxCell id="3nuBFxr9cyL0pnOWT2aG-1" value="Player's App" style="shape=umlLifeline;perimeter=lifelinePerimeter;container=1;collapsible=0;recursiveResize=0;rounded=0;shadow=0;strokeWidth=1;" parent="1" vertex="1"><mxGeometry x="130" y="80" width="100" height="700" as="geometry"/></mxCell><mxCell id="dUl0ps8TCkOEMYuiNfiw-5" value="do move" style="endArrow=classic;html=1;rounded=0;" parent="3nuBFxr9cyL0pnOWT2aG-1" target="3nuBFxr9cyL0pnOWT2aG-1" edge="1"><mxGeometry width="50" height="50" relative="1" as="geometry"><mxPoint x="-70" y="150" as="sourcePoint"/><mxPoint x="50" y="80" as="targetPoint"/><Array as="points"><mxPoint x="-40" y="150"/></Array></mxGeometry></mxCell><mxCell id="dUl0ps8TCkOEMYuiNfiw-1" value="Player" style="shape=umlActor;verticalLabelPosition=bottom;verticalAlign=top;html=1;outlineConnect=0;" parent="1" vertex="1"><mxGeometry x="40" y="60" width="40" height="60" as="geometry"/></mxCell><mxCell id="dUl0ps8TCkOEMYuiNfiw-3" value="" style="endArrow=none;dashed=1;html=1;rounded=0;" parent="1" target="dUl0ps8TCkOEMYuiNfiw-1" edge="1"><mxGeometry width="50" height="50" relative="1" as="geometry"><mxPoint x="60" y="780" as="sourcePoint"/><mxPoint x="60" y="190" as="targetPoint"/></mxGeometry></mxCell><mxCell id="dUl0ps8TCkOEMYuiNfiw-4" value="&lt;div&gt;Sever&lt;/div&gt;" style="shape=cylinder3;whiteSpace=wrap;html=1;boundedLbl=1;backgroundOutline=1;size=15;" parent="1" vertex="1"><mxGeometry x="350" y="40" width="60" height="80" as="geometry"/></mxCell><mxCell id="dUl0ps8TCkOEMYuiNfiw-6" value="" style="endArrow=none;dashed=1;html=1;rounded=0;entryX=0.5;entryY=1;entryDx=0;entryDy=0;entryPerimeter=0;" parent="1" target="dUl0ps8TCkOEMYuiNfiw-4" edge="1"><mxGeometry width="50" height="50" relative="1" as="geometry"><mxPoint x="380" y="790" as="sourcePoint"/><mxPoint x="390" y="250" as="targetPoint"/></mxGeometry></mxCell><mxCell id="dUl0ps8TCkOEMYuiNfiw-7" value="connect" style="endArrow=classic;html=1;rounded=0;" parent="1" source="3nuBFxr9cyL0pnOWT2aG-1" edge="1"><mxGeometry width="50" height="50" relative="1" as="geometry"><mxPoint x="182" y="154" as="sourcePoint"/><mxPoint x="380" y="150" as="targetPoint"/></mxGeometry></mxCell><mxCell id="dUl0ps8TCkOEMYuiNfiw-9" value="&lt;div&gt;send move&lt;/div&gt;" style="endArrow=classic;html=1;rounded=0;" parent="1" edge="1"><mxGeometry width="50" height="50" relative="1" as="geometry"><mxPoint x="180" y="250" as="sourcePoint"/><mxPoint x="380" y="250" as="targetPoint"/></mxGeometry></mxCell><mxCell id="dUl0ps8TCkOEMYuiNfiw-10" value="check is valid move" style="endArrow=classic;html=1;rounded=0;" parent="1" edge="1"><mxGeometry width="50" height="50" relative="1" as="geometry"><mxPoint x="380" y="260" as="sourcePoint"/><mxPoint x="380" y="280" as="targetPoint"/><Array as="points"><mxPoint x="460" y="260"/><mxPoint x="460" y="280"/></Array><mxPoint as="offset"/></mxGeometry></mxCell><mxCell id="dUl0ps8TCkOEMYuiNfiw-11" value="Actor" style="shape=umlActor;verticalLabelPosition=bottom;verticalAlign=top;html=1;outlineConnect=0;" parent="1" vertex="1"><mxGeometry x="720" y="60" width="40" height="60" as="geometry"/></mxCell><mxCell id="dUl0ps8TCkOEMYuiNfiw-12" value="" style="endArrow=none;dashed=1;html=1;rounded=0;" parent="1" edge="1"><mxGeometry width="50" height="50" relative="1" as="geometry"><mxPoint x="740" y="780" as="sourcePoint"/><mxPoint x="740" y="120" as="targetPoint"/></mxGeometry></mxCell><mxCell id="dUl0ps8TCkOEMYuiNfiw-13" value="Opponent's App" style="rounded=0;whiteSpace=wrap;html=1;" parent="1" vertex="1"><mxGeometry x="530" y="80" width="100" height="40" as="geometry"/></mxCell><mxCell id="dUl0ps8TCkOEMYuiNfiw-15" value="" style="endArrow=none;dashed=1;html=1;rounded=0;" parent="1" edge="1"><mxGeometry width="50" height="50" relative="1" as="geometry"><mxPoint x="580" y="784.6153846153846" as="sourcePoint"/><mxPoint x="579.7" y="110" as="targetPoint"/></mxGeometry></mxCell><mxCell id="dUl0ps8TCkOEMYuiNfiw-16" value="notification" style="endArrow=classic;html=1;rounded=0;" parent="1" edge="1"><mxGeometry width="50" height="50" relative="1" as="geometry"><mxPoint x="380" y="410" as="sourcePoint"/><mxPoint x="580" y="410" as="targetPoint"/></mxGeometry></mxCell><mxCell id="dUl0ps8TCkOEMYuiNfiw-24" value="&lt;div&gt;break&lt;/div&gt;&lt;div&gt;&lt;font style=&quot;font-size: 8px;&quot;&gt;(if move is valid)&lt;/font&gt;&lt;/div&gt;" style="rounded=0;whiteSpace=wrap;html=1;shadow=0;glass=0;labelBackgroundColor=none;sketch=0;fontColor=default;fillColor=none;align=left;verticalAlign=top;" parent="1" vertex="1"><mxGeometry x="110" y="290" width="290" height="50" as="geometry"/></mxCell><mxCell id="dUl0ps8TCkOEMYuiNfiw-23" value="send is valid" style="endArrow=classic;html=1;rounded=0;fontColor=default;" parent="1" target="3nuBFxr9cyL0pnOWT2aG-1" edge="1"><mxGeometry width="50" height="50" relative="1" as="geometry"><mxPoint x="380" y="320" as="sourcePoint"/><mxPoint x="200" y="250" as="targetPoint"/></mxGeometry></mxCell><mxCell id="dUl0ps8TCkOEMYuiNfiw-25" value="&lt;font style=&quot;font-size: 11px;&quot;&gt;notification&lt;/font&gt;" style="endArrow=classic;html=1;rounded=0;fontSize=8;fontColor=default;" parent="1" source="3nuBFxr9cyL0pnOWT2aG-1" target="3nuBFxr9cyL0pnOWT2aG-1" edge="1"><mxGeometry width="50" height="50" relative="1" as="geometry"><mxPoint x="390" y="400" as="sourcePoint"/><mxPoint x="240" y="430" as="targetPoint"/><Array as="points"><mxPoint x="220" y="400"/><mxPoint x="220" y="430"/></Array></mxGeometry></mxCell><mxCell id="dUl0ps8TCkOEMYuiNfiw-27" value="do move" style="endArrow=classic;html=1;rounded=0;fontSize=11;fontColor=default;" parent="1" edge="1"><mxGeometry width="50" height="50" relative="1" as="geometry"><mxPoint x="740" y="440" as="sourcePoint"/><mxPoint x="580" y="440" as="targetPoint"/></mxGeometry></mxCell><mxCell id="dUl0ps8TCkOEMYuiNfiw-28" value="send move" style="endArrow=classic;html=1;rounded=0;fontSize=11;fontColor=default;" parent="1" edge="1"><mxGeometry width="50" height="50" relative="1" as="geometry"><mxPoint x="580" y="490" as="sourcePoint"/><mxPoint x="380" y="490" as="targetPoint"/></mxGeometry></mxCell><mxCell id="dUl0ps8TCkOEMYuiNfiw-29" value="check is valid move" style="endArrow=classic;html=1;rounded=0;fontSize=11;fontColor=default;" parent="1" edge="1"><mxGeometry width="50" height="50" relative="1" as="geometry"><mxPoint x="380" y="520" as="sourcePoint"/><mxPoint x="380" y="560" as="targetPoint"/><Array as="points"><mxPoint x="310" y="520"/><mxPoint x="310" y="560"/></Array></mxGeometry></mxCell><mxCell id="dUl0ps8TCkOEMYuiNfiw-30" value="send is valid" style="endArrow=classic;html=1;rounded=0;fontSize=11;fontColor=default;" parent="1" edge="1"><mxGeometry width="50" height="50" relative="1" as="geometry"><mxPoint x="380" y="620" as="sourcePoint"/><mxPoint x="580" y="620" as="targetPoint"/></mxGeometry></mxCell><mxCell id="dUl0ps8TCkOEMYuiNfiw-35" value="notification" style="endArrow=classic;html=1;rounded=0;fontSize=11;fontColor=default;" parent="1" edge="1"><mxGeometry width="50" height="50" relative="1" as="geometry"><mxPoint x="580" y="690" as="sourcePoint"/><mxPoint x="580" y="730" as="targetPoint"/><Array as="points"><mxPoint x="530" y="690"/><mxPoint x="530" y="730"/></Array></mxGeometry></mxCell><mxCell id="dUl0ps8TCkOEMYuiNfiw-36" value="&lt;div&gt;notification&lt;/div&gt;" style="endArrow=classic;html=1;rounded=0;fontSize=11;fontColor=default;" parent="1" target="3nuBFxr9cyL0pnOWT2aG-1" edge="1"><mxGeometry width="50" height="50" relative="1" as="geometry"><mxPoint x="380" y="690" as="sourcePoint"/><mxPoint x="360" y="710" as="targetPoint"/></mxGeometry></mxCell></root></mxGraphModel></diagram></mxfile>